<?xml version="1.0" encoding="utf-8"?>
<!-- Generator: Adobe Illustrator 21.1.0, SVG Export Plug-In . SVG Version: 6.00 Build 0)  -->
<svg version="1.1" id="Layer_1" xmlns="http://www.w3.org/2000/svg" xmlns:xlink="http://www.w3.org/1999/xlink" x="0px" y="0px"
	 viewBox="0 0 612 792" style="enable-background:new 0 0 612 792;" xml:space="preserve">
<style type="text/css">
	.st0{fill:none;stroke:#000000;stroke-width:0.5;stroke-miterlimit:10;}
	.st1{fill:none;stroke:#000000;stroke-width:3;stroke-miterlimit:10;}
	.st2{fill:none;stroke:#000000;stroke-miterlimit:10;}
	.st3{opacity:0.16;}
</style>
<g>
	<circle class="st0" cx="305.5" cy="378.3" r="139"/>
	<circle class="st1" cx="306.2" cy="378.3" r="133.9"/>
	<path class="st2" d="M432.1,385.3c0,66.5-56.6,120.3-126.4,120.3s-126.4-53.9-126.4-120.3"/>
	<path class="st2" d="M202.6,301.7c22.8-30.9,60.3-51,102.8-51c42.6,0,80.2,20.3,103,51.3"/>
	<g class="st3">
		<path class="st2" d="M393.7,464.4c-48.1,48.1-126,48.1-174.1,0s-48.1-126,0-174.1L393.7,464.4z"/>
		<path class="st2" d="M387.7,458.4c-44.3,44.3-116,44.3-160.3,0s-44.3-116,0-160.3l80.4,80.4c0,0-112.8-15.7-112.9-12.4
			c-0.1,3.4,112.1,13.1,112.1,13.1s-102.8,46.5-100.8,49.8S307.5,380,307.5,380s-50.2,99.9-47,101.4c3.2,1.5,47.7-100.9,47.7-100.9
			s13.6,110.3,17.6,110.1c3.9-0.2-16.8-110.8-16.8-110.8L387.7,458.4z"/>
	</g>
	<g>
		<path class="st1" d="M331.7,427.7"/>
		<path d="M291.2,378.6c0,0-0.1,1.7-0.7,3.6c-0.7,1.9-1.6,3.8-2.9,5.9c-1.3,2.1-2.8,4-4.6,5.8c-1.8,1.7-3.8,2.6-6.1,2.6
			c-2,0-3.8-0.9-5.5-2.9c-1.7-1.9-2.5-4.7-2.5-8.4c0-3,0.4-6.1,1.3-9.3c0.9-3.2,1.9-6.2,3-8.9c-1.1,0.2-2.2,0.3-3.3,0.4
			c-1.1,0.1-2.2,0.1-3.3,0.2c-0.4,0-0.8,0-1.2,0c-0.4,0-1.3-0.2-1.3-0.2s-2.8,5.7-5.7,9.6c-2.6,3.5-4.2,6.1-10.3,12.6
			c-6.1,6.5-12.8,9.7-12.8,9.7s4.2-3.9,7.5-9c3.3-5.1,4.6-7.9,5.8-10.3c0.6-1.2,2.4,1.4,7.9-5.3c2.6-3.2,3.4-8.2,3.7-9
			c-1.7-1.1-2.9-2.5-3.5-4.1c-0.6-1.6-0.9-3-0.9-4.1c0-1.1,0.1-2,0.3-2.5c0.2-0.6,0.7-0.8,1.5-0.8c0.4,0,1.1,0.1,1.9,0.2
			c0.9,0.1,1.8,0.3,2.7,0.5c0.9,0.2,1.8,0.4,2.6,0.7c0.8,0.3,1.3,0.5,1.5,0.7c-0.3,0.7-0.5,1.2-0.6,1.3c-0.1,0.2-0.3,0.3-0.5,0.5
			c0,0.2,0.2,0.4,0.7,0.5c0.5,0.1,1,0.2,1.7,0.3c0.7,0.1,1.4,0.2,2.2,0.2c0.8,0.1,1.6,0.1,2.3,0.1h4.3c-0.1,0.2,0,0,0.4-0.6
			c0.4-0.6,0.8-1.4,1.3-2.3c0.5-0.9,1-1.9,1.5-3c0.5-1.1,0.8-2.1,1-3c0.1,0,0.5,0.2,1.2,0.7c0.7,0.5,1.5,1.1,2.4,1.8
			c0.9,0.7,1.7,1.5,2.4,2.4c0.7,0.9,1.1,1.8,1.1,2.7c0,0.4,0,0.8-0.1,1.2c-0.1,0.4-0.1,0.8-0.2,1.3c-0.8,1.6-1.9,3.6-3.2,5.9
			c-1.3,2.3-2.5,4.6-3.8,7.1c-1.2,2.5-2.3,5-3.2,7.5c-0.9,2.5-1.3,4.9-1.3,7.2c0,1.1,0.1,2.1,0.4,2.9c0.2,0.6,0.8,1.1,1.5,1.1
			c1.5,0.1,3.3-1,5.5-3.2c2.2-2.1,4.3-5.5,6.3-10.3l0.6-1.7L291.2,378.6z"/>
		<path d="M344,390.9c-1.3-1.9-2-4.4-2-7.5c0-2.5,0.4-5.2,1.1-8c0.7-2.8,1.5-5.4,2.5-8c-0.8,1.6-1.8,3.3-2.8,5.2
			c-1,1.9-2,3.8-2.9,5.7c-0.9,1.9-1.8,3.7-2.7,5.5c-0.8,1.8-1.6,3.3-2.3,4.5c-0.6,1.1-1.1,2-1.5,2.7c-0.4,0.7-0.9,1.3-1.6,1.8
			c-0.6,0.6-1.3,0.9-2,1c-2.3,0.2-3.8-0.6-4.5-2.5c-0.8-1.8-1.1-4.2-1.1-7c0-3.1,0.4-6.3,1.3-9.5c0.8-3.3,1.8-6.2,2.8-8.8
			c1-2.6,2-4.8,3-6.4c0.9-1.6,1.5-2.5,1.7-2.5c0.7,0,1.4,0.2,2.3,0.5c0.9,0.3,1.8,0.7,2.8,1.2c1,0.5,2.1,1,3.3,1.7
			c-0.8,1.6-1.7,3.4-2.9,5.4c-1.2,2-2.3,4.1-3.5,6.4c-1.1,2.3-2.1,4.6-3,7.1c-0.8,2.5-1.3,4.9-1.3,7.2c3.1-5.6,5.8-10.1,8.1-13.7
			c2.3-3.6,4.2-6.5,5.7-8.6c1.6-2.2,2.8-3.8,3.8-4.9c1-1.1,1.8-2.1,2.4-2.8c0.6-0.8,1.1-1.5,1.3-2.1c0.3-0.7,0.6-1.6,0.8-3
			c0.1,0,0.5,0.2,1.2,0.6c0.7,0.4,1.4,1,2.2,1.7c0.8,0.7,1.5,1.5,2.1,2.3c0.7,0.8,1,1.6,1,2.5c0,0.3-0.1,0.8-0.2,1.6
			c-0.1,0.8-2.5,5.1-3.6,7.1c-1.1,2-2.2,4.1-3.3,6.2c-1,2.2-1.9,4.3-2.7,6.5c-0.8,2.2-1.1,4.2-1.1,6.1c0,1,0.1,1.9,0.4,2.6
			c0.2,0.7,0.8,1.1,1.6,1.1c1.2,0,2.8-1,4.9-2.9c2-1.9,4-5.1,5.9-9.4l0.3-0.1c0.3,0,0.6,0.1,0.8,0.4l0.3,0.3c0,0.2-0.3,1.1-0.9,2.8
			c-0.6,1.6-1.5,3.5-2.6,5.4c-1.1,2-2.5,3.8-4.2,5.4c-1.7,1.6-3.5,2.4-5.6,2.4c-0.8,0-1.7-0.2-2.7-0.6
			C345.7,392.8,344.8,392,344,390.9z"/>
		<path d="M388.8,378.1c-2.6,5.7-4.9,11.5-6.9,17.4c1.8,0.1,3.6,0.2,5.5,0.4c1.9,0.2,3.6,0.5,5.1,1.1c1.5,0.5,2.7,1.3,3.7,2.3
			c0.9,1,1.4,2.3,1.4,3.9c0,1.2-0.3,2.4-0.9,3.7c-0.6,1.2-1.4,2.3-2.4,3.3c-1,0.9-2.1,1.7-3.4,2.3c-1.3,0.6-2.6,0.9-3.9,0.9
			c-2.5,0-4.8-0.9-6.9-2.8c-2.2-1.9-3.5-4.3-4-7.3c-1.7,0.2-3.7,0.4-5.9,0.8c-2.3,0.3-4.4,0.7-6.5,1.1c-2.1,0.4-3.8,0.8-5.2,1.3
			c-1.4,0.5-2.1,0.9-2.1,1.3c-0.5-2-0.5-3.6-0.2-4.9c0.3-1.3,0.8-2.4,1.5-3.3c0.7-0.8,1.4-1.5,2.1-1.8c0.8-0.4,1.3-0.6,1.7-0.7
			c2.3-0.4,4.6-0.6,7.1-0.8c2.4-0.1,5.2-0.3,8.2-0.5c0.1-0.5,0.2-0.9,0.3-1.2c0.1-0.3,0.2-0.7,0.3-1.2c-0.8,0.5-1.7,0.8-2.7,1.1
			c-0.9,0.3-2.1,0.5-3.5,0.6c-2.3,0.1-4.1-0.4-5.5-1.4s-2.5-2.3-3.3-3.7c-0.8-1.5-1.4-3-1.7-4.6c-0.3-1.6-0.5-3-0.6-4.1
			c-0.1-2.5,0.3-5.3,1.3-8.1c0.9-2.9,2.3-5.5,4.1-7.9c1.8-2.4,3.9-4.4,6.4-6c2.5-1.6,5.3-2.5,8.3-2.7c1.9-0.1,3.5,0.1,4.8,0.5
			c1.3,0.4,2.5,0.9,3.5,1.3c0.5-0.8,0.9-1.5,1.3-2.3c0.4-0.8,0.7-1.6,0.8-2.4c1,0.6,2,1.1,2.8,1.7c0.8,0.5,1.5,1,2.1,1.7
			c0.7,0.7,1.1,1.4,1.3,2.1C396.6,358.8,391.4,372.3,388.8,378.1z M377.7,388.5c1-4.2,2.2-8.3,3.5-12.2c1.3-3.9,2.5-7.3,3.5-10.3
			c-1.8-1.4-7.6-5-12.2,0.8c-8.2,10.2,2,23.6,3.2,23.1C377.1,389.5,377.7,389,377.7,388.5z M379.4,402.4c0.5,1.9,2,3.7,3.3,5.1
			c1.4,1.4,2.9,2.1,4.7,2.1c1.2,0,2.6-0.5,4.2-1.6c1.6-1,2.3-2.6,2.3-4.8c0-0.8-0.3-1.4-0.9-1.8c-0.3-0.2-3.4-1.1-6.8-1
			C382.1,400.8,379.4,402.4,379.4,402.4z"/>
		<path d="M428.6,376.2c0.4,0.1,0.6,0.3,0.6,0.6c0,0.1-0.4,1-1.1,2.8c-0.8,1.7-2,3.6-3.8,5.7c-1.8,2-4.1,3.9-7.1,5.6
			c-2.9,1.7-6.5,2.5-10.7,2.5c-2.5,0-4.6-0.6-6.3-1.8c-1.6-1.2-2.9-2.7-3.8-4.4c-0.9-1.7-1.5-3.4-1.9-5.2c-0.4-1.8-0.6-3.3-0.6-4.4
			c0-2.8,0.5-5.6,1.6-8.3c1.1-2.7,2.4-5.1,4.1-7.2c1.6-2.1,3.5-3.8,5.6-5.1c2.1-1.3,4.1-1.9,6.1-1.9c2.7,0,4.8,0.4,6.3,1.1
			c1.5,0.7,2.5,1.5,3.3,2.5c0.7,0.9,1.1,1.9,1.3,2.8c0.1,0.9,0.2,1.7,0.2,2.1c0,2.6-0.5,4.8-1.6,6.5c-1,1.7-2.3,3-3.9,4
			c-1.6,1-3.2,1.7-5,2.1c-1.8,0.4-3.4,0.6-4.9,0.6c-1.6,0-2.9-0.2-4-0.5c-1-0.3-1.8-0.7-2.4-1.2c-0.5,1.7-0.7,3.2-0.7,4.4
			c0,1.1,0.1,2.2,0.4,3.3c0.3,1.1,0.8,2,1.5,2.9c0.7,0.8,1.6,1.5,2.8,2c1.2,0.5,2.7,0.8,4.5,0.8c3,0,5.7-0.6,8.1-1.8
			c2.4-1.2,4.3-2.5,5.9-4c1.6-1.5,2.8-2.9,3.6-4.2c0.8-1.3,1.2-2,1.2-2.2v-0.1h0.1l0.3-0.1c0.1,0,0.2,0,0.2,0.1
			C428.4,376.1,428.5,376.2,428.6,376.2z M404.5,366.6c-2.8,2.7-3.7,5.7-3.5,7.8c2,0.5,4.3-0.2,5.9-0.7c1.6-0.5,2.9-1.3,4-2.3
			c1-1,1.8-2,2.3-3.2c0.5-1.1,0.6-2,0.4-2.5C413.5,365.3,409,362.4,404.5,366.6z"/>
		<path d="M198.4,381.8c-7.6-11.4-1.9-27.2,10.2-33.7c6.5-3.5,14.3,0.7,17-1c1.3-0.8,3.6-8.8,4.4-11c0,0-5-2-10.2-1.9
			c-5.2,0.1-9.2-0.4-18.2,4.5c-16.7,8.9-21.5,30.3-12.6,46.9s29.6,22.9,46.3,14c22.7-12.1,19.1-48.3,6.1-54.4
			c0,0-11.1,13.1-20.3,24.4C212.2,380.3,204.5,391,198.4,381.8z"/>
		<g>
			<path d="M307.4,393.3c-0.8,0.5-1.7,0.8-2.7,1.1c-0.9,0.3-2.1,0.5-3.5,0.6c-2.3,0.1-4.1-0.4-5.5-1.4c-1.4-1-2.5-2.3-3.3-3.7
				c-0.8-1.5-1.4-3-1.7-4.6c-0.3-1.6-0.5-3-0.6-4.1c-0.1-2.5,0.3-5.3,1.3-8.1c0.9-2.9,2.3-5.5,4.1-7.9c1.8-2.4,3.9-4.4,6.4-6
				c2.5-1.6,5.3-2.5,8.3-2.7c1.9-0.1,3.5,0.1,4.8,0.5c1.3,0.4,2.5,0.9,3.5,1.3c0.5-0.8,0.9-1.5,1.3-2.3c0.4-0.8,0.7-1.6,0.8-2.4
				c1,0.6,2,1.1,2.8,1.7c0.8,0.5,1.5,1,2.1,1.7c0.7,0.7,1.1,1.4,1.3,2.1c0,0-5.1,13.5-7.8,19.2c-1.7,3.7-3.3,7.5-4.7,11.3
				 M308,388.8c1-4.2,2.2-8.3,3.5-12.2c1.3-3.9,2.5-7.3,3.5-10.3c-1.8-1.4-7.6-5-12.2,0.8c-8.2,10.2,2,23.6,3.2,23.1
				C307.4,389.7,308,389.3,308,388.8z"/>
			<path d="M318,380.6c-1.6,3.5-3.2,6.7-3.2,9.6c0,1.1,0.1,2,0.4,2.7c0.2,0.7,0.8,1,1.6,1c1.2,0,2.8-1,4.9-2.9c2-1.9,4-5.1,5.9-9.4
				l0.3-0.1c0.6,0,0.9,0.1,1,0.4c0.1,0.3,0.1,0.4,0.1,0.3c-0.1,0.3-0.4,1.3-1.1,3c-0.6,1.7-1.5,3.6-2.6,5.4
				c-1.1,1.9-2.5,3.6-4.1,5.2c-1.6,1.6-3.4,2.3-5.5,2.3c-1.2,0-2.4-0.4-3.5-1.1c-1.1-0.7-2.1-2.8-3.2-5.1c-0.4,0.5-0.4,0.5-1.6,1.3"
				/>
		</g>
	</g>
</g>
</svg>
